ffmpeg started on 2016-12-07 at 08:15:23
Report written to "Output/x264/results/ffmpeg/sintelslow3500k.log"
Command line:
Tools/ffmpeg/ffmpeg -benchmark -y -i Input/y4m/sintel.y4m -c:v libx264 -preset slow -b:v 3500k -an Output/x264/encoded/sintelslow3500k.mkv
ffmpeg version N-82227-gdb23fde Copyright (c) 2000-2016 the FFmpeg developers
  built with gcc 5.4.0 (Ubuntu 5.4.0-6ubuntu1~16.04.2) 20160609
  configuration: --prefix=/home/jaroslav/ffmpeg_build --pkg-config-flags=--static --extra-cflags=-I/home/jaroslav/ffmpeg_build/include --extra-ldflags=-L/home/jaroslav/ffmpeg_build/lib --bindir=/home/jaroslav/bin --enable-gpl --enable-libass --enable-libfdk-aac --enable-libfreetype --enable-libmp3lame --enable-libopus --enable-libtheora --enable-libvorbis --enable-libvpx --enable-libx264 --enable-libx265 --enable-nvenc --enable-libmfx --enable-libxvid --enable-libgsm --enable-libopencore-amrnb --enable-version3 --enable-nonfree
  libavutil      55. 35.100 / 55. 35.100
  libavcodec     57. 66.101 / 57. 66.101
  libavformat    57. 57.100 / 57. 57.100
  libavdevice    57.  2.100 / 57.  2.100
  libavfilter     6. 66.100 /  6. 66.100
  libswscale      4.  3.100 /  4.  3.100
  libswresample   2.  4.100 /  2.  4.100
  libpostproc    54.  2.100 / 54.  2.100
Input #0, yuv4mpegpipe, from 'Input/y4m/sintel.y4m':
  Duration: 00:00:20.83, start: 0.000000, bitrate: 2057307 kb/s
    Stream #0:0: Video: rawvideo (I420 / 0x30323449), yuv420p(progressive), 4096x1744, SAR 1:1 DAR 256:109, 24 fps, 24 tbr, 24 tbn, 24 tbc
[libx264 @ 0x433e120] using SAR=1/1
[libx264 @ 0x433e120] using cpu capabilities: MMX2 SSE2Fast SSSE3 SSE4.2 AVX FMA3 AVX2 LZCNT BMI2
[libx264 @ 0x433e120] profile High, level 5.1
[libx264 @ 0x433e120] 264 - core 148 - H.264/MPEG-4 AVC codec - Copyleft 2003-2016 - http://www.videolan.org/x264.html - options: cabac=1 ref=5 deblock=1:0:0 analyse=0x3:0x113 me=hex subme=8 psy=1 psy_rd=1.00:0.00 mixed_ref=1 me_range=16 chroma_me=1 trellis=2 8x8dct=1 cqm=0 deadzone=21,11 fast_pskip=1 chroma_qp_offset=-2 threads=6 lookahead_threads=1 sliced_threads=0 nr=0 decimate=1 interlaced=0 bluray_compat=0 constrained_intra=0 bframes=3 b_pyramid=2 b_adapt=1 b_bias=0 direct=3 weightb=1 open_gop=0 weightp=2 keyint=250 keyint_min=24 scenecut=40 intra_refresh=0 rc_lookahead=50 rc=abr mbtree=1 bitrate=3500 ratetol=1.0 qcomp=0.60 qpmin=0 qpmax=69 qpstep=4 ip_ratio=1.40 aq=1:1.00
Output #0, matroska, to 'Output/x264/encoded/sintelslow3500k.mkv':
  Metadata:
    encoder         : Lavf57.57.100
    Stream #0:0: Video: h264 (libx264) (H264 / 0x34363248), yuv420p, 4096x1744 [SAR 1:1 DAR 256:109], q=-1--1, 3500 kb/s, 24 fps, 1k tbn, 24 tbc
    Metadata:
      encoder         : Lavc57.66.101 libx264
    Side data:
      cpb: bitrate max/min/avg: 0/0/3500000 buffer size: 0 vbv_delay: -1
Stream mapping:
  Stream #0:0 -> #0:0 (rawvideo (native) -> h264 (libx264))
Press [q] to stop, [?] for help
frame=    9 fps=0.0 q=0.0 size=       0kB time=00:00:00.00 bitrate=N/A speed=   0x    frame=   18 fps= 18 q=0.0 size=       0kB time=00:00:00.00 bitrate=N/A speed=   0x    frame=   27 fps= 17 q=0.0 size=       0kB time=00:00:00.00 bitrate=N/A speed=   0x    frame=   36 fps= 17 q=0.0 size=       0kB time=00:00:00.00 bitrate=N/A speed=   0x    frame=   45 fps= 16 q=0.0 size=       0kB time=00:00:00.00 bitrate=N/A speed=   0x    frame=   54 fps= 16 q=0.0 size=       0kB time=00:00:00.00 bitrate=N/A speed=   0x    frame=   57 fps=9.0 q=0.0 size=       0kB time=00:00:00.00 bitrate=N/A speed=   0x    frame=   58 fps=6.1 q=0.0 size=       0kB time=00:00:00.00 bitrate=N/A speed=   0x    frame=   63 fps=6.1 q=34.0 size=       1kB time=00:00:00.00 bitrate=5872.0kbits/s speed=9.68e-05x    frame=   66 fps=6.1 q=40.0 size=       1kB time=00:00:00.12 bitrate=  46.6kbits/s speed=0.0116x    frame=   68 fps=5.9 q=52.0 size=       1kB time=00:00:00.20 bitrate=  28.1kbits/s speed=0.0182x    frame=   71 fps=5.9 q=52.0 size=       1kB time=00:00:00.33 bitrate=  17.6kbits/s speed=0.0279x    frame=   76 fps=6.0 q=51.0 size=       1kB time=00:00:00.54 bitrate=  10.8kbits/s speed=0.0429x    frame=   82 fps=6.2 q=51.0 size=       1kB time=00:00:00.79 bitrate=   7.4kbits/s speed=0.0601x    frame=   84 fps=6.1 q=51.0 size=       1kB time=00:00:00.87 bitrate=   6.7kbits/s speed=0.064x    frame=   90 fps=6.3 q=50.0 size=       1kB time=00:00:01.12 bitrate=   5.2kbits/s speed=0.0789x    frame=   93 fps=6.3 q=50.0 size=       1kB time=00:00:01.25 bitrate=   4.7kbits/s speed=0.0845x    frame=   97 fps=6.3 q=50.0 size=       1kB time=00:00:01.41 bitrate=   4.1kbits/s speed=0.0924x    frame=  101 fps=6.4 q=50.0 size=       1kB time=00:00:01.58 bitrate=   3.7kbits/s speed=0.0997x    frame=  106 fps=6.5 q=49.0 size=       1kB time=00:00:01.79 bitrate=   3.3kbits/s speed=0.109x    frame=  111 fps=6.5 q=49.0 size=       1kB time=00:00:02.00 bitrate=   2.9kbits/s speed=0.118x    frame=  114 fps=6.5 q=49.0 size=       1kB time=00:00:02.12 bitrate=   2.8kbits/s speed=0.122x    frame=  118 fps=6.5 q=49.0 size=       1kB time=00:00:02.29 bitrate=   2.6kbits/s speed=0.126x    frame=  122 fps=6.5 q=49.0 size=       1kB time=00:00:02.45 bitrate=   2.4kbits/s speed=0.131x    frame=  125 fps=6.5 q=48.0 size=       1kB time=00:00:02.58 bitrate=   2.3kbits/s speed=0.134x    frame=  128 fps=6.4 q=48.0 size=       1kB time=00:00:02.70 bitrate=   2.2kbits/s speed=0.136x    frame=  133 fps=6.5 q=49.0 size=       1kB time=00:00:02.91 bitrate=   2.0kbits/s speed=0.142x    frame=  135 fps=6.4 q=49.0 size=       1kB time=00:00:03.00 bitrate=   2.0kbits/s speed=0.142x    frame=  139 fps=6.4 q=48.0 size=       1kB time=00:00:03.16 bitrate=   1.9kbits/s speed=0.146x    frame=  141 fps=6.3 q=48.0 size=       1kB time=00:00:03.25 bitrate=   1.8kbits/s speed=0.146x    frame=  144 fps=6.3 q=48.0 size=       1kB time=00:00:03.37 bitrate=   1.7kbits/s speed=0.148x    frame=  148 fps=6.3 q=48.0 size=       1kB time=00:00:03.54 bitrate=   1.7kbits/s speed=0.152x    frame=  151 fps=6.3 q=48.0 size=       1kB time=00:00:03.66 bitrate=   1.6kbits/s speed=0.153x    frame=  156 fps=6.4 q=48.0 size=       1kB time=00:00:03.87 bitrate=   1.5kbits/s speed=0.158x    frame=  162 fps=6.4 q=48.0 size=    1998kB time=00:00:04.12 bitrate=3966.8kbits/s speed=0.163x    frame=  168 fps=6.5 q=48.0 size=    1998kB time=00:00:04.37 bitrate=3740.1kbits/s speed=0.17x    frame=  171 fps=6.5 q=45.0 size=    1998kB time=00:00:04.50 bitrate=3636.3kbits/s speed=0.17x    frame=  178 fps=6.6 q=48.0 size=    1998kB time=00:00:04.79 bitrate=3414.7kbits/s speed=0.178x    frame=  181 fps=6.6 q=48.0 size=    1998kB time=00:00:04.91 bitrate=3328.0kbits/s speed=0.178x    frame=  187 fps=6.6 q=47.0 size=    1998kB time=00:00:05.16 bitrate=3167.0kbits/s speed=0.183x    frame=  191 fps=6.6 q=48.0 size=    1998kB time=00:00:05.33 bitrate=3068.4kbits/s speed=0.184x    frame=  195 fps=6.6 q=48.0 size=    1998kB time=00:00:05.50 bitrate=2975.3kbits/s speed=0.187x    frame=  200 fps=6.7 q=48.0 size=    1998kB time=00:00:05.70 bitrate=2866.9kbits/s speed=0.19x    frame=  204 fps=6.7 q=48.0 size=    1998kB time=00:00:05.87 bitrate=2785.4kbits/s speed=0.192x    frame=  209 fps=6.7 q=48.0 size=    1998kB time=00:00:06.08 bitrate=2690.1kbits/s speed=0.195x    frame=  214 fps=6.7 q=48.0 size=    1998kB time=00:00:06.29 bitrate=2600.8kbits/s speed=0.198x    frame=  222 fps=6.9 q=47.0 size=    2958kB time=00:00:06.62 bitrate=3657.6kbits/s speed=0.205x    frame=  225 fps=6.8 q=47.0 size=    2958kB time=00:00:06.75 bitrate=3589.9kbits/s speed=0.204x    frame=  231 fps=6.8 q=47.0 size=    2958kB time=00:00:07.00 bitrate=3461.7kbits/s speed=0.208x    frame=  234 fps=6.8 q=47.0 size=    2958kB time=00:00:07.12 bitrate=3401.0kbits/s speed=0.208x    frame=  238 fps=6.8 q=47.0 size=    2958kB time=00:00:07.29 bitrate=3323.1kbits/s speed=0.21x    frame=  242 fps=6.8 q=47.0 size=    2958kB time=00:00:07.45 bitrate=3249.1kbits/s speed=0.21x    frame=  251 fps=7.0 q=47.0 size=    3357kB time=00:00:07.83 bitrate=3509.9kbits/s speed=0.217x    frame=  256 fps=7.0 q=46.0 size=    3357kB time=00:00:08.04 bitrate=3418.7kbits/s speed=0.22x    frame=  259 fps=7.0 q=46.0 size=    3357kB time=00:00:08.16 bitrate=3366.4kbits/s speed=0.22x    frame=  262 fps=6.9 q=46.0 size=    3357kB time=00:00:08.29 bitrate=3315.6kbits/s speed=0.22x    frame=  268 fps=7.0 q=46.0 size=    3357kB time=00:00:08.54 bitrate=3218.6kbits/s speed=0.223x    frame=  273 fps=7.0 q=46.0 size=    3357kB time=00:00:08.75 bitrate=3142.1kbits/s speed=0.225x    frame=  278 fps=7.1 q=46.0 size=    3357kB time=00:00:08.95 bitrate=3069.2kbits/s speed=0.227x    frame=  285 fps=7.1 q=46.0 size=    3357kB time=00:00:09.25 bitrate=2972.3kbits/s speed=0.231x    frame=  289 fps=7.1 q=46.0 size=    3357kB time=00:00:09.41 bitrate=2919.6kbits/s speed=0.232x    frame=  295 fps=7.2 q=46.0 size=    3357kB time=00:00:09.66 bitrate=2844.1kbits/s speed=0.235x    frame=  301 fps=7.2 q=45.0 size=    3357kB time=00:00:09.91 bitrate=2772.4kbits/s speed=0.237x    frame=  309 fps=7.3 q=45.0 size=    3357kB time=00:00:10.25 bitrate=2682.3kbits/s speed=0.241x    frame=  315 fps=7.3 q=45.0 size=    3357kB time=00:00:10.50 bitrate=2618.5kbits/s speed=0.243x    frame=  322 fps=7.3 q=45.0 size=    3357kB time=00:00:10.79 bitrate=2547.6kbits/s speed=0.243x    frame=  331 fps=7.4 q=45.0 size=    4374kB time=00:00:11.16 bitrate=3208.6kbits/s speed=0.249x    frame=  337 fps=7.4 q=44.0 size=    4374kB time=00:00:11.41 bitrate=3138.4kbits/s speed=0.251x    frame=  344 fps=7.4 q=44.0 size=    4374kB time=00:00:11.70 bitrate=3060.4kbits/s speed=0.254x    frame=  352 fps=7.5 q=44.0 size=    4374kB time=00:00:12.04 bitrate=2975.5kbits/s speed=0.257x    frame=  360 fps=7.6 q=44.0 size=    4374kB time=00:00:12.37 bitrate=2895.4kbits/s speed=0.262x    frame=  368 fps=7.7 q=43.0 size=    4374kB time=00:00:12.70 bitrate=2819.6kbits/s speed=0.266x    frame=  373 fps=7.7 q=43.0 size=    4374kB time=00:00:12.91 bitrate=2774.0kbits/s speed=0.267x    frame=  381 fps=7.8 q=43.0 size=    4374kB time=00:00:13.25 bitrate=2704.2kbits/s speed=0.271x    frame=  388 fps=7.9 q=42.0 size=    4374kB time=00:00:13.54 bitrate=2645.9kbits/s speed=0.274x    frame=  396 fps=7.9 q=42.0 size=    4374kB time=00:00:13.87 bitrate=2582.4kbits/s speed=0.277x    frame=  405 fps=8.0 q=42.0 size=    4374kB time=00:00:14.25 bitrate=2514.5kbits/s speed=0.281x    frame=  413 fps=8.0 q=41.0 size=    4374kB time=00:00:14.58 bitrate=2457.1kbits/s speed=0.284x    frame=  421 fps=8.1 q=41.0 size=    4374kB time=00:00:14.91 bitrate=2402.1kbits/s speed=0.287x    frame=  428 fps=8.1 q=41.0 size=    5318kB time=00:00:15.20 bitrate=2864.6kbits/s speed=0.288x    frame=  435 fps=8.2 q=40.0 size=    5318kB time=00:00:15.50 bitrate=2810.7kbits/s speed=0.291x    frame=  440 fps=8.1 q=40.0 size=    5318kB time=00:00:15.70 bitrate=2773.4kbits/s speed=0.291x    frame=  448 fps=8.2 q=40.0 size=    5318kB time=00:00:16.04 bitrate=2715.7kbits/s speed=0.293x    frame=  454 fps=8.2 q=40.0 size=    5318kB time=00:00:16.29 bitrate=2674.0kbits/s speed=0.295x    frame=  459 fps=8.2 q=40.0 size=    5318kB time=00:00:16.50 bitrate=2640.3kbits/s speed=0.296x    frame=  461 fps=8.2 q=40.0 size=    5318kB time=00:00:16.58 bitrate=2627.1kbits/s speed=0.294x    frame=  467 fps=8.2 q=40.0 size=    5318kB time=00:00:16.83 bitrate=2588.1kbits/s speed=0.295x    frame=  475 fps=8.2 q=40.0 size=    5318kB time=00:00:17.16 bitrate=2537.7kbits/s speed=0.298x    frame=  483 fps=8.3 q=40.0 size=    6179kB time=00:00:17.50 bitrate=2892.5kbits/s speed=0.301x    frame=  488 fps=8.3 q=40.0 size=    6179kB time=00:00:17.70 bitrate=2858.5kbits/s speed=0.301x    frame=  495 fps=8.3 q=40.0 size=    6179kB time=00:00:18.00 bitrate=2812.1kbits/s speed=0.303x    frame=  500 fps=8.3 q=40.0 size=    6179kB time=00:00:18.20 bitrate=2780.0kbits/s speed=0.302x    frame=  500 fps=7.7 q=-1.0 Lsize=    7357kB time=00:00:20.70 bitrate=2910.2kbits/s speed=0.321x    
video:7352kB audio:0kB subtitle:0kB other streams:0kB global headers:0kB muxing overhead: 0.062029%
bench: utime=210.584s
bench: maxrss=1816228kB
[libx264 @ 0x433e120] frame I:8     Avg QP:35.63  size: 56240
[libx264 @ 0x433e120] frame P:269   Avg QP:40.73  size: 18581
[libx264 @ 0x433e120] frame B:223   Avg QP:39.92  size:  9327
[libx264 @ 0x433e120] consecutive B-frames: 37.0%  8.4%  6.6% 48.0%
[libx264 @ 0x433e120] mb I  I16..4: 38.6% 60.4%  1.0%
[libx264 @ 0x433e120] mb P  I16..4: 16.5% 21.7%  0.0%  P16..4: 11.3%  0.5%  0.4%  0.0%  0.0%    skip:49.6%
[libx264 @ 0x433e120] mb B  I16..4:  0.8%  0.9%  0.0%  B16..8: 21.4%  0.6%  0.0%  direct: 0.3%  skip:76.0%  L0:38.7% L1:60.5% BI: 0.7%
[libx264 @ 0x433e120] final ratefactor: 37.61
[libx264 @ 0x433e120] 8x8 transform intra:56.8% inter:93.3%
[libx264 @ 0x433e120] direct mvs  spatial:98.7% temporal:1.3%
[libx264 @ 0x433e120] coded y,uvDC,uvAC intra: 3.4% 14.9% 0.2% inter: 0.9% 1.3% 0.0%
[libx264 @ 0x433e120] i16 v,h,dc,p: 41% 34%  4% 20%
[libx264 @ 0x433e120] i8 v,h,dc,ddl,ddr,vr,hd,vl,hu: 11%  6% 76%  1%  1%  1%  1%  1%  1%
[libx264 @ 0x433e120] i4 v,h,dc,ddl,ddr,vr,hd,vl,hu: 13% 13%  9% 10% 15% 10% 14%  6% 11%
[libx264 @ 0x433e120] i8c dc,h,v,p: 92%  5%  2%  0%
[libx264 @ 0x433e120] Weighted P-Frames: Y:1.1% UV:0.7%
[libx264 @ 0x433e120] ref P L0: 60.1%  8.2% 17.5%  6.1%  5.6%  2.5%
[libx264 @ 0x433e120] ref B L0: 86.2%  9.0%  4.1%  0.7%
[libx264 @ 0x433e120] ref B L1: 97.5%  2.5%
[libx264 @ 0x433e120] kb/s:2890.76
